<svg width="123" height="30" viewBox="0 0 123 30" fill="none" xmlns="http://www.w3.org/2000/svg">
<g clip-path="url(#clip0_2005_799)">
<path d="M2.76172 28.3271V10.3536C2.76172 10.1428 3.01303 10.0378 3.15884 10.1877L11.8309 19.1065" stroke="white" stroke-width="1.60731" stroke-linecap="round"/>
<path d="M27.8026 28.8473L1.80078 2.30469" stroke="white" stroke-width="1.60731" stroke-linecap="round"/>
<path d="M18.1367 10.966L27.6494 1.39682C27.7958 1.2494 28.0446 1.35494 28.0446 1.56455V18.4277" stroke="white" stroke-width="1.60731" stroke-linecap="round"/>
<path d="M39.7982 8.84015L38.8374 9.03413V15.0254H37.8555V5.95027H39.5422L42.6132 13.3142L43.0757 14.4232L43.5365 13.3135L46.5937 5.95027H48.2798V15.0254H47.2979V9.06291L46.3374 8.86821L43.7343 15.0254H42.4016L39.7982 8.84015ZM65.2899 11.409V15.0254H64.3078V5.95027H65.2899V9.55227V10.0523H65.7899H71.2118H71.7118V9.55227V5.95027H72.6937V15.0254H71.7118V11.409V10.909H71.2118H65.7899H65.2899V11.409ZM80.056 7.30696V15.0254H79.0741V7.30696V6.80696H78.5741H75.5633V5.95027H83.5386V6.80696H80.556H80.056V7.30696ZM90.7692 5.95027L95.2704 15.0254H94.1787L93.1413 12.9288L93.0036 12.6505H92.6932H87.2712H86.9607L86.8231 12.9288L85.7857 15.0254H84.706L89.1817 5.95027H90.7692ZM99.1029 15.011H97.7582L101.966 10.828L102.31 10.4865L101.979 10.1323L98.0642 5.93588H99.3873L103.104 9.89451L103.252 10.0523H103.468H104.601H105.101V9.55227V5.93588H106.097V9.55227V10.0523H106.597H107.73H107.946L108.094 9.89451L111.811 5.93588H113.134L109.218 10.1323L108.888 10.4865L109.232 10.828L113.44 15.011H112.096L108.037 11.0373L107.891 10.8946H107.687H106.597H106.097V11.3946V15.011H105.101V11.3946V10.8946H104.601H103.525H103.322L103.176 11.0367L99.1029 15.011ZM87.7292 11.0862L87.3713 11.8082H88.1772H91.773H92.5789L92.221 11.0862L90.4231 7.45913L89.9751 6.55537L89.5271 7.45913L87.7292 11.0862ZM118.375 10.909H116.057V10.0667H118.375H118.875V9.56666V7.15929H119.715V9.56666V10.0667H120.215H122.532V10.909H120.215H119.715V11.409V13.802H118.875V11.409V10.909H118.375ZM51.3685 10.5022C51.3685 7.7573 53.4502 5.73438 56.3046 5.73438C57.74 5.73438 58.9677 6.2229 59.8332 7.04814C60.6963 7.87108 61.2267 9.0545 61.2267 10.5022C61.2267 13.3119 59.1525 15.2413 56.3046 15.2413C53.4626 15.2413 51.3685 13.2022 51.3685 10.5022ZM52.3504 10.5022C52.3504 12.7429 54.0402 14.3126 56.3046 14.3126C57.444 14.3126 58.4342 13.9314 59.1424 13.2451C59.8515 12.558 60.2447 11.5967 60.2447 10.5022C60.2447 9.38883 59.8533 8.41975 59.1429 7.72924C58.4336 7.03985 57.4426 6.66304 56.3046 6.66304C55.1796 6.66304 54.1868 7.04053 53.472 7.72722C52.7554 8.4156 52.3504 9.38437 52.3504 10.5022Z" fill="white" stroke="white"/>
<mask id="path-5-inside-1_2005_799" fill="white">
<path d="M38.6657 26.1107C38.2044 26.1107 37.8047 26.0216 37.4667 25.8433C37.1354 25.6583 36.8787 25.3972 36.6967 25.0604C36.5148 24.7167 36.4173 24.3073 36.4044 23.8315C36.3979 23.7324 36.3945 23.6003 36.3945 23.4351C36.3945 23.27 36.3979 23.1377 36.4044 23.0387C36.4173 22.563 36.5148 22.1567 36.6967 21.8197C36.8787 21.4762 37.1354 21.2153 37.4667 21.0369C37.8047 20.8519 38.2044 20.7594 38.6657 20.7594C39.0426 20.7594 39.3642 20.8122 39.6307 20.918C39.9036 21.0236 40.1277 21.1591 40.3032 21.3243C40.4786 21.4895 40.6086 21.6679 40.6931 21.8594C40.784 22.051 40.8329 22.2326 40.8393 22.4045C40.8458 22.4705 40.8263 22.5234 40.7808 22.563C40.7353 22.6026 40.6801 22.6225 40.6152 22.6225H40.1473C40.0823 22.6225 40.0335 22.6092 40.001 22.5829C39.9685 22.5497 39.9361 22.497 39.9036 22.4242C39.7866 22.1005 39.6275 21.8726 39.426 21.7405C39.2245 21.6084 38.9743 21.5423 38.6754 21.5423C38.2855 21.5423 37.9671 21.6645 37.7202 21.909C37.4798 22.1534 37.3499 22.5465 37.3303 23.0883C37.3238 23.3261 37.3238 23.5574 37.3303 23.782C37.3499 24.3303 37.4798 24.7268 37.7202 24.9711C37.9671 25.209 38.2855 25.3279 38.6754 25.3279C38.9743 25.3279 39.2245 25.2619 39.426 25.1297C39.6275 24.9976 39.7866 24.7696 39.9036 24.4459C39.9361 24.3732 39.9685 24.3237 40.001 24.2972C40.0335 24.2642 40.0823 24.2477 40.1473 24.2477H40.6152C40.6801 24.2477 40.7353 24.2675 40.7808 24.3073C40.8263 24.3469 40.8458 24.3996 40.8393 24.4657C40.8329 24.6045 40.8036 24.7465 40.7516 24.8919C40.6995 25.0372 40.6152 25.1859 40.4982 25.3379C40.3877 25.4831 40.248 25.6153 40.079 25.7343C39.9101 25.8465 39.7053 25.939 39.465 26.0118C39.231 26.0778 38.9646 26.1107 38.6657 26.1107ZM43.0106 27.8946C42.9391 27.8946 42.8839 27.8715 42.8449 27.8253C42.8059 27.7856 42.7865 27.7328 42.7865 27.6666V27.3298C42.7865 27.2636 42.8059 27.2075 42.8449 27.1613C42.8839 27.1216 42.9391 27.1018 43.0106 27.1018H43.2641C43.4135 27.1018 43.5337 27.072 43.6247 27.0126C43.7156 26.9531 43.7969 26.8507 43.8684 26.7054C43.9464 26.5666 44.0373 26.375 44.1413 26.1306L46.2564 21.027C46.2759 20.9741 46.3019 20.9345 46.3344 20.908C46.3734 20.875 46.4286 20.8585 46.5001 20.8585H46.929C46.9874 20.8585 47.0361 20.8784 47.0751 20.918C47.1141 20.9576 47.1337 21.0039 47.1337 21.0567C47.1337 21.0831 47.1305 21.1095 47.1239 21.136C47.1174 21.1558 47.1044 21.1889 47.085 21.2351L45.2329 25.6946C45.1355 25.9324 45.0283 26.1801 44.9113 26.4379C44.8008 26.6955 44.6742 26.9334 44.5311 27.1514C44.3947 27.376 44.2322 27.5544 44.0438 27.6865C43.8553 27.8253 43.6344 27.8946 43.3809 27.8946H43.0106ZM44.3654 25.863L42.3966 21.2351C42.3641 21.1558 42.3479 21.0996 42.3479 21.0666C42.3542 21.0071 42.377 20.9576 42.416 20.918C42.455 20.8784 42.5005 20.8585 42.5525 20.8585H43.0106C43.082 20.8585 43.1341 20.875 43.1665 20.908C43.2055 20.9411 43.2348 20.9807 43.2542 21.027L44.8723 24.9612L44.3654 25.863ZM52.0935 26.0118C52.0221 26.0118 51.9668 25.9919 51.9278 25.9523C51.8888 25.906 51.8694 25.8499 51.8694 25.7838V23.9208C51.6939 24.0859 51.4795 24.2081 51.2261 24.2874C50.9791 24.36 50.6965 24.3964 50.378 24.3964C49.8062 24.3964 49.3611 24.2675 49.0427 24.0099C48.7308 23.7522 48.5749 23.336 48.5749 22.7612V21.0864C48.5749 21.0204 48.5943 20.9675 48.6333 20.9279C48.6788 20.8816 48.734 20.8585 48.7991 20.8585H49.2767C49.3416 20.8585 49.3937 20.8816 49.4327 20.9279C49.478 20.9675 49.5008 21.0204 49.5008 21.0864V22.7017C49.5008 22.999 49.5853 23.2171 49.7543 23.3559C49.9297 23.4946 50.1961 23.564 50.5536 23.564C50.9499 23.564 51.2683 23.5144 51.5088 23.4153C51.7491 23.3096 51.8694 23.1246 51.8694 22.8604V21.0864C51.8694 21.0204 51.8888 20.9675 51.9278 20.9279C51.9668 20.8816 52.0221 20.8585 52.0935 20.8585H52.581C52.6459 20.8585 52.6979 20.8816 52.7369 20.9279C52.7823 20.9675 52.8051 21.0204 52.8051 21.0864V25.7838C52.8051 25.8499 52.7823 25.906 52.7369 25.9523C52.6979 25.9919 52.6459 26.0118 52.581 26.0118H52.0935ZM56.4485 26.1107C56.1236 26.1107 55.8279 26.0448 55.5615 25.9126C55.2951 25.7805 55.0806 25.6021 54.9182 25.3775C54.7557 25.1529 54.6744 24.8985 54.6744 24.6144C54.6744 24.1585 54.8565 23.7951 55.2203 23.5243C55.5843 23.2534 56.0585 23.075 56.6434 22.9891L58.0958 22.781V22.4936C58.0958 22.1765 58.0048 21.9287 57.8229 21.7504C57.6473 21.572 57.3582 21.4829 56.9553 21.4829C56.663 21.4829 56.4257 21.5423 56.2438 21.6613C56.0684 21.7801 55.9449 21.9321 55.8734 22.1171C55.8344 22.2161 55.7662 22.2657 55.6686 22.2657H55.23C55.1586 22.2657 55.1033 22.2459 55.0643 22.2062C55.0319 22.16 55.0156 22.1071 55.0156 22.0478C55.0156 21.9486 55.0514 21.8264 55.1229 21.681C55.2009 21.5356 55.3178 21.3936 55.4738 21.2549C55.6296 21.1161 55.8279 21.0005 56.0684 20.908C56.3152 20.809 56.6141 20.7594 56.9651 20.7594C57.355 20.7594 57.6831 20.8122 57.9495 20.918C58.216 21.0171 58.4238 21.1525 58.5734 21.3243C58.7294 21.496 58.8398 21.691 58.9048 21.909C58.9762 22.127 59.012 22.3483 59.012 22.5729V25.7838C59.012 25.8499 58.9893 25.906 58.9438 25.9523C58.9048 25.9919 58.8527 26.0118 58.7878 26.0118H58.3395C58.268 26.0118 58.2128 25.9919 58.1738 25.9523C58.1348 25.906 58.1152 25.8499 58.1152 25.7838V25.3576C58.0307 25.4765 57.9171 25.5955 57.774 25.7144C57.6311 25.8268 57.4524 25.9225 57.238 26.0017C57.0236 26.0745 56.7604 26.1107 56.4485 26.1107ZM56.6531 25.3675C56.9195 25.3675 57.1632 25.3114 57.3842 25.1991C57.6051 25.0801 57.7773 24.8985 57.9008 24.654C58.0307 24.4096 58.0958 24.1024 58.0958 23.7324V23.4549L56.9651 23.6234C56.5037 23.6895 56.1561 23.8018 55.9221 23.9604C55.6882 24.1123 55.5712 24.3072 55.5712 24.545C55.5712 24.73 55.6232 24.8853 55.7272 25.0108C55.8376 25.1298 55.974 25.2189 56.1365 25.2784C56.3055 25.3379 56.4777 25.3675 56.6531 25.3675ZM63.2399 26.1107C62.7785 26.1107 62.3789 26.0216 62.041 25.8433C61.7097 25.6583 61.453 25.3972 61.271 25.0604C61.089 24.7167 60.9916 24.3073 60.9785 23.8315C60.972 23.7324 60.9688 23.6003 60.9688 23.4351C60.9688 23.27 60.972 23.1377 60.9785 23.0387C60.9916 22.563 61.089 22.1567 61.271 21.8197C61.453 21.4762 61.7097 21.2153 62.041 21.0369C62.3789 20.8519 62.7785 20.7594 63.2399 20.7594C63.6168 20.7594 63.9384 20.8122 64.2048 20.918C64.4778 21.0236 64.702 21.1591 64.8774 21.3243C65.0529 21.4895 65.1828 21.6679 65.2673 21.8594C65.3583 22.051 65.407 22.2326 65.4136 22.4045C65.4201 22.4705 65.4005 22.5234 65.355 22.563C65.3096 22.6026 65.2544 22.6225 65.1893 22.6225H64.7214C64.6565 22.6225 64.6078 22.6092 64.5753 22.5829C64.5428 22.5497 64.5102 22.497 64.4778 22.4242C64.3608 22.1005 64.2016 21.8726 64.0002 21.7405C63.7988 21.6084 63.5486 21.5423 63.2496 21.5423C62.8598 21.5423 62.5414 21.6645 62.2944 21.909C62.0541 22.1534 61.924 22.5465 61.9046 23.0883C61.8981 23.3261 61.8981 23.5574 61.9046 23.782C61.924 24.3303 62.0541 24.7268 62.2944 24.9711C62.5414 25.209 62.8598 25.3279 63.2496 25.3279C63.5486 25.3279 63.7988 25.2619 64.0002 25.1297C64.2016 24.9976 64.3608 24.7696 64.4778 24.4459C64.5102 24.3732 64.5428 24.3237 64.5753 24.2972C64.6078 24.2642 64.6565 24.2477 64.7214 24.2477H65.1893C65.2544 24.2477 65.3096 24.2675 65.355 24.3073C65.4005 24.3469 65.4201 24.3996 65.4136 24.4657C65.407 24.6045 65.3778 24.7465 65.3259 24.8919C65.2738 25.0372 65.1893 25.1859 65.0724 25.3379C64.9619 25.4831 64.8222 25.6153 64.6533 25.7343C64.4843 25.8465 64.2796 25.939 64.0392 26.0118C63.8052 26.0778 63.5388 26.1107 63.2399 26.1107ZM67.575 26.0118C67.5101 26.0118 67.4549 25.9919 67.4093 25.9523C67.3704 25.906 67.3509 25.8499 67.3509 25.7838V21.0864C67.3509 21.0204 67.3704 20.9675 67.4093 20.9279C67.4549 20.8816 67.5101 20.8585 67.575 20.8585H68.0429C68.108 20.8585 68.1599 20.8816 68.1989 20.9279C68.2379 20.9675 68.2574 21.0204 68.2574 21.0864V22.9891H70.9184V21.0864C70.9184 21.0204 70.9378 20.9675 70.9768 20.9279C71.0223 20.8816 71.0776 20.8585 71.1425 20.8585H71.6007C71.6656 20.8585 71.7177 20.8816 71.7567 20.9279C71.8022 20.9675 71.8248 21.0204 71.8248 21.0864V25.7838C71.8248 25.8499 71.8022 25.906 71.7567 25.9523C71.7177 25.9919 71.6656 26.0118 71.6007 26.0118H71.1425C71.0776 26.0118 71.0223 25.9919 70.9768 25.9523C70.9378 25.906 70.9184 25.8499 70.9184 25.7838V23.782H68.2574V25.7838C68.2574 25.8499 68.2379 25.906 68.1989 25.9523C68.1599 25.9919 68.108 26.0118 68.0429 26.0118H67.575ZM76.0881 26.1107C75.4187 26.1107 74.8859 25.9028 74.4896 25.4865C74.0932 25.0636 73.8755 24.4889 73.8365 23.7621C73.83 23.6763 73.8267 23.5673 73.8267 23.4351C73.8267 23.2964 73.83 23.184 73.8365 23.0981C73.8624 22.6291 73.9697 22.2195 74.1581 21.8694C74.3465 21.5126 74.6032 21.2384 74.9282 21.0468C75.2596 20.8553 75.6462 20.7594 76.0881 20.7594C76.582 20.7594 76.9946 20.8651 77.326 21.0765C77.6639 21.288 77.9206 21.5885 78.096 21.9784C78.2715 22.3681 78.3592 22.824 78.3592 23.3459V23.5144C78.3592 23.5871 78.3364 23.6433 78.2909 23.6829C78.2519 23.7225 78.2 23.7424 78.1349 23.7424H74.7624C74.7624 23.7489 74.7624 23.7621 74.7624 23.782C74.7624 23.8018 74.7624 23.8183 74.7624 23.8315C74.7755 24.1024 74.834 24.3567 74.9379 24.5946C75.0419 24.8257 75.1913 25.0141 75.3863 25.1595C75.5812 25.3047 75.8152 25.3775 76.0881 25.3775C76.3221 25.3775 76.517 25.3411 76.673 25.2685C76.8288 25.1957 76.9556 25.1165 77.053 25.0306C77.1506 24.9381 77.2155 24.8687 77.248 24.8225C77.3064 24.7366 77.3519 24.6871 77.3844 24.6739C77.417 24.654 77.4689 24.6441 77.5404 24.6441H78.0083C78.0732 24.6441 78.1252 24.664 78.1642 24.7036C78.2097 24.7366 78.2292 24.7861 78.2228 24.8522C78.2163 24.9514 78.1642 25.0735 78.0668 25.2189C77.9693 25.3576 77.8295 25.4964 77.6476 25.6351C77.4657 25.7739 77.2448 25.8895 76.9848 25.982C76.7249 26.0679 76.426 26.1107 76.0881 26.1107ZM74.7624 23.0585H77.4332V23.0288C77.4332 22.7315 77.378 22.4672 77.2674 22.236C77.1635 22.0047 77.0109 21.8231 76.8094 21.691C76.6079 21.5523 76.3674 21.4829 76.0881 21.4829C75.8086 21.4829 75.5682 21.5523 75.3668 21.691C75.1719 21.8231 75.0224 22.0047 74.9184 22.236C74.8144 22.4672 74.7624 22.7315 74.7624 23.0288V23.0585ZM85.5204 26.1107C85.059 26.1107 84.6594 26.0216 84.3215 25.8433C83.99 25.6583 83.7333 25.3972 83.5514 25.0604C83.3695 24.7167 83.2719 24.3073 83.259 23.8315C83.2525 23.7324 83.2493 23.6003 83.2493 23.4351C83.2493 23.27 83.2525 23.1377 83.259 23.0387C83.2719 22.563 83.3695 22.1567 83.5514 21.8197C83.7333 21.4762 83.99 21.2153 84.3215 21.0369C84.6594 20.8519 85.059 20.7594 85.5204 20.7594C85.8972 20.7594 86.2189 20.8122 86.4853 20.918C86.7582 21.0236 86.9823 21.1591 87.1579 21.3243C87.3333 21.4895 87.4633 21.6679 87.5478 21.8594C87.6387 22.051 87.6874 22.2326 87.6939 22.4045C87.7004 22.4705 87.681 22.5234 87.6355 22.563C87.59 22.6026 87.5347 22.6225 87.4698 22.6225H87.0019C86.937 22.6225 86.8881 22.6092 86.8557 22.5829C86.8232 22.5497 86.7907 22.497 86.7582 22.4242C86.6413 22.1005 86.4821 21.8726 86.2806 21.7405C86.0791 21.6084 85.829 21.5423 85.5301 21.5423C85.1402 21.5423 84.8217 21.6645 84.5749 21.909C84.3344 22.1534 84.2045 22.5465 84.185 23.0883C84.1784 23.3261 84.1784 23.5574 84.185 23.782C84.2045 24.3303 84.3344 24.7268 84.5749 24.9711C84.8217 25.209 85.1402 25.3279 85.5301 25.3279C85.829 25.3279 86.0791 25.2619 86.2806 25.1297C86.4821 24.9976 86.6413 24.7696 86.7582 24.4459C86.7907 24.3732 86.8232 24.3237 86.8557 24.2972C86.8881 24.2642 86.937 24.2477 87.0019 24.2477H87.4698C87.5347 24.2477 87.59 24.2675 87.6355 24.3073C87.681 24.3469 87.7004 24.3996 87.6939 24.4657C87.6874 24.6045 87.6582 24.7465 87.6062 24.8919C87.5543 25.0372 87.4698 25.1859 87.3528 25.3379C87.2424 25.4831 87.1026 25.6153 86.9336 25.7343C86.7648 25.8465 86.56 25.939 86.3196 26.0118C86.0857 26.0778 85.8193 26.1107 85.5204 26.1107ZM89.8555 26.0118C89.7906 26.0118 89.7353 25.9919 89.6898 25.9523C89.6508 25.906 89.6313 25.8499 89.6313 25.7838V21.0864C89.6313 21.0204 89.6508 20.9675 89.6898 20.9279C89.7353 20.8816 89.7906 20.8585 89.8555 20.8585H90.3137C90.3786 20.8585 90.4305 20.8816 90.4695 20.9279C90.515 20.9675 90.5378 21.0204 90.5378 21.0864V22.9891H91.4247L92.7407 21.0071C92.7732 20.9609 92.8089 20.9246 92.8478 20.8981C92.8868 20.8718 92.9389 20.8585 93.0038 20.8585H93.5107C93.5691 20.8585 93.6179 20.8718 93.6569 20.8981C93.6959 20.9246 93.7154 20.9642 93.7154 21.0171C93.7154 21.0302 93.7088 21.0501 93.6959 21.0765C93.6894 21.0964 93.6797 21.1161 93.6667 21.136L92.2045 23.3261L93.8616 25.7242C93.8941 25.764 93.9103 25.8069 93.9103 25.8531C93.9103 25.906 93.8908 25.9456 93.8518 25.972C93.8193 25.9985 93.7739 26.0118 93.7154 26.0118H93.1208C93.0624 26.0118 93.0135 25.9985 92.9745 25.972C92.9355 25.9456 92.8999 25.9092 92.8674 25.863L91.4346 23.7919H90.5378V25.7838C90.5378 25.8499 90.515 25.906 90.4695 25.9523C90.4305 25.9919 90.3786 26.0118 90.3137 26.0118H89.8555ZM95.3931 26.0118C95.328 26.0118 95.2728 25.9886 95.2274 25.9424C95.1819 25.8961 95.1591 25.8399 95.1591 25.7739V25.4072C95.1591 25.2685 95.2274 25.1958 95.3638 25.1891C95.5653 25.1826 95.7342 25.0868 95.8707 24.9018C96.0071 24.7103 96.111 24.4096 96.1826 24C96.2541 23.5838 96.2898 23.0354 96.2898 22.3549V21.0864C96.2898 21.0204 96.3093 20.9675 96.3483 20.9279C96.3938 20.8816 96.449 20.8585 96.514 20.8585H99.6136C99.6785 20.8585 99.7306 20.8816 99.7695 20.9279C99.8151 20.9675 99.8378 21.0204 99.8378 21.0864V25.7838C99.8378 25.8499 99.8151 25.906 99.7695 25.9523C99.7306 25.9919 99.6785 26.0118 99.6136 26.0118H99.1457C99.0807 26.0118 99.0287 25.9919 98.9897 25.9523C98.9507 25.906 98.9313 25.8499 98.9313 25.7838V21.6512H97.1768V22.4639C97.1768 23.0981 97.141 23.6433 97.0696 24.0991C96.9981 24.5484 96.8877 24.915 96.7382 25.1991C96.5952 25.4765 96.41 25.6814 96.1826 25.8135C95.9616 25.9456 95.6985 26.0118 95.3931 26.0118ZM102.295 26.0118C102.23 26.0118 102.175 25.9919 102.129 25.9523C102.09 25.906 102.071 25.8499 102.071 25.7838V21.0864C102.071 21.0204 102.09 20.9675 102.129 20.9279C102.175 20.8816 102.23 20.8585 102.295 20.8585H102.763C102.828 20.8585 102.88 20.8816 102.919 20.9279C102.958 20.9675 102.977 21.0204 102.977 21.0864V25.7838C102.977 25.8499 102.958 25.906 102.919 25.9523C102.88 25.9919 102.828 26.0118 102.763 26.0118H102.295ZM102.217 19.8972C102.152 19.8972 102.097 19.8774 102.051 19.8378C102.012 19.7915 101.993 19.7354 101.993 19.6694V19.1341C101.993 19.0681 102.012 19.0153 102.051 18.9756C102.097 18.9294 102.152 18.9062 102.217 18.9062H102.831C102.896 18.9062 102.948 18.9294 102.987 18.9756C103.032 19.0153 103.055 19.0681 103.055 19.1341V19.6694C103.055 19.7354 103.032 19.7915 102.987 19.8378C102.948 19.8774 102.896 19.8972 102.831 19.8972H102.217ZM105.435 26.0118C105.37 26.0118 105.315 25.9919 105.269 25.9523C105.23 25.906 105.211 25.8499 105.211 25.7838V21.0864C105.211 21.0204 105.23 20.9675 105.269 20.9279C105.315 20.8816 105.37 20.8585 105.435 20.8585H105.903C105.968 20.8585 106.02 20.8816 106.059 20.9279C106.098 20.9675 106.117 21.0204 106.117 21.0864V22.9891H108.778V21.0864C108.778 21.0204 108.798 20.9675 108.837 20.9279C108.882 20.8816 108.938 20.8585 109.003 20.8585H109.461C109.526 20.8585 109.578 20.8816 109.617 20.9279C109.662 20.9675 109.685 21.0204 109.685 21.0864V25.7838C109.685 25.8499 109.662 25.906 109.617 25.9523C109.578 25.9919 109.526 26.0118 109.461 26.0118H109.003C108.938 26.0118 108.882 25.9919 108.837 25.9523C108.798 25.906 108.778 25.8499 108.778 25.7838V23.782H106.117V25.7838C106.117 25.8499 106.098 25.906 106.059 25.9523C106.02 25.9919 105.968 26.0118 105.903 26.0118H105.435ZM112.155 26.0118C112.09 26.0118 112.034 25.9919 111.989 25.9523C111.95 25.906 111.931 25.8499 111.931 25.7838V21.0864C111.931 21.0204 111.95 20.9675 111.989 20.9279C112.034 20.8816 112.09 20.8585 112.155 20.8585H112.623C112.687 20.8585 112.74 20.8816 112.779 20.9279C112.818 20.9675 112.837 21.0204 112.837 21.0864V22.9891H115.498V21.0864C115.498 21.0204 115.518 20.9675 115.556 20.9279C115.601 20.8816 115.657 20.8585 115.722 20.8585H116.181C116.245 20.8585 116.298 20.8816 116.336 20.9279C116.381 20.9675 116.405 21.0204 116.405 21.0864V25.7838C116.405 25.8499 116.381 25.906 116.336 25.9523C116.298 25.9919 116.245 26.0118 116.181 26.0118H115.722C115.657 26.0118 115.601 25.9919 115.556 25.9523C115.518 25.906 115.498 25.8499 115.498 25.7838V23.782H112.837V25.7838C112.837 25.8499 112.818 25.906 112.779 25.9523C112.74 25.9919 112.687 26.0118 112.623 26.0118H112.155ZM121.808 26.0118C121.737 26.0118 121.681 25.9919 121.642 25.9523C121.604 25.906 121.584 25.8499 121.584 25.7838V24.1685H120.464V24.1189C119.852 24.1189 119.397 23.967 119.098 23.663C118.806 23.3525 118.66 22.9594 118.66 22.4837C118.66 21.9287 118.819 21.5191 119.138 21.2549C119.462 20.9906 119.949 20.8585 120.599 20.8585H122.277C122.341 20.8585 122.393 20.8816 122.432 20.9279C122.477 20.9675 122.5 21.0204 122.5 21.0864V25.7838C122.5 25.8499 122.477 25.906 122.432 25.9523C122.393 25.9919 122.341 26.0118 122.277 26.0118H121.808ZM118.718 26.0118C118.66 26.0118 118.611 25.9919 118.572 25.9523C118.532 25.9126 118.514 25.8664 118.514 25.8135C118.514 25.7871 118.516 25.7606 118.524 25.7343C118.536 25.7011 118.556 25.6681 118.582 25.6351L119.742 23.891L120.678 23.9604L119.439 25.863C119.413 25.8961 119.377 25.9291 119.332 25.9621C119.286 25.9951 119.238 26.0118 119.186 26.0118H118.718ZM120.492 23.4253H121.594V21.6018H120.571C120.206 21.6018 119.937 21.6679 119.761 21.8C119.593 21.9255 119.508 22.1534 119.508 22.4837C119.508 22.7546 119.585 22.9793 119.742 23.1576C119.904 23.336 120.155 23.4253 120.492 23.4253Z"/>
</mask>
<path d="M38.6657 26.1107C38.2044 26.1107 37.8047 26.0216 37.4667 25.8433C37.1354 25.6583 36.8787 25.3972 36.6967 25.0604C36.5148 24.7167 36.4173 24.3073 36.4044 23.8315C36.3979 23.7324 36.3945 23.6003 36.3945 23.4351C36.3945 23.27 36.3979 23.1377 36.4044 23.0387C36.4173 22.563 36.5148 22.1567 36.6967 21.8197C36.8787 21.4762 37.1354 21.2153 37.4667 21.0369C37.8047 20.8519 38.2044 20.7594 38.6657 20.7594C39.0426 20.7594 39.3642 20.8122 39.6307 20.918C39.9036 21.0236 40.1277 21.1591 40.3032 21.3243C40.4786 21.4895 40.6086 21.6679 40.6931 21.8594C40.784 22.051 40.8329 22.2326 40.8393 22.4045C40.8458 22.4705 40.8263 22.5234 40.7808 22.563C40.7353 22.6026 40.6801 22.6225 40.6152 22.6225H40.1473C40.0823 22.6225 40.0335 22.6092 40.001 22.5829C39.9685 22.5497 39.9361 22.497 39.9036 22.4242C39.7866 22.1005 39.6275 21.8726 39.426 21.7405C39.2245 21.6084 38.9743 21.5423 38.6754 21.5423C38.2855 21.5423 37.9671 21.6645 37.7202 21.909C37.4798 22.1534 37.3499 22.5465 37.3303 23.0883C37.3238 23.3261 37.3238 23.5574 37.3303 23.782C37.3499 24.3303 37.4798 24.7268 37.7202 24.9711C37.9671 25.209 38.2855 25.3279 38.6754 25.3279C38.9743 25.3279 39.2245 25.2619 39.426 25.1297C39.6275 24.9976 39.7866 24.7696 39.9036 24.4459C39.9361 24.3732 39.9685 24.3237 40.001 24.2972C40.0335 24.2642 40.0823 24.2477 40.1473 24.2477H40.6152C40.6801 24.2477 40.7353 24.2675 40.7808 24.3073C40.8263 24.3469 40.8458 24.3996 40.8393 24.4657C40.8329 24.6045 40.8036 24.7465 40.7516 24.8919C40.6995 25.0372 40.6152 25.1859 40.4982 25.3379C40.3877 25.4831 40.248 25.6153 40.079 25.7343C39.9101 25.8465 39.7053 25.939 39.465 26.0118C39.231 26.0778 38.9646 26.1107 38.6657 26.1107ZM43.0106 27.8946C42.9391 27.8946 42.8839 27.8715 42.8449 27.8253C42.8059 27.7856 42.7865 27.7328 42.7865 27.6666V27.3298C42.7865 27.2636 42.8059 27.2075 42.8449 27.1613C42.8839 27.1216 42.9391 27.1018 43.0106 27.1018H43.2641C43.4135 27.1018 43.5337 27.072 43.6247 27.0126C43.7156 26.9531 43.7969 26.8507 43.8684 26.7054C43.9464 26.5666 44.0373 26.375 44.1413 26.1306L46.2564 21.027C46.2759 20.9741 46.3019 20.9345 46.3344 20.908C46.3734 20.875 46.4286 20.8585 46.5001 20.8585H46.929C46.9874 20.8585 47.0361 20.8784 47.0751 20.918C47.1141 20.9576 47.1337 21.0039 47.1337 21.0567C47.1337 21.0831 47.1305 21.1095 47.1239 21.136C47.1174 21.1558 47.1044 21.1889 47.085 21.2351L45.2329 25.6946C45.1355 25.9324 45.0283 26.1801 44.9113 26.4379C44.8008 26.6955 44.6742 26.9334 44.5311 27.1514C44.3947 27.376 44.2322 27.5544 44.0438 27.6865C43.8553 27.8253 43.6344 27.8946 43.3809 27.8946H43.0106ZM44.3654 25.863L42.3966 21.2351C42.3641 21.1558 42.3479 21.0996 42.3479 21.0666C42.3542 21.0071 42.377 20.9576 42.416 20.918C42.455 20.8784 42.5005 20.8585 42.5525 20.8585H43.0106C43.082 20.8585 43.1341 20.875 43.1665 20.908C43.2055 20.9411 43.2348 20.9807 43.2542 21.027L44.8723 24.9612L44.3654 25.863ZM52.0935 26.0118C52.0221 26.0118 51.9668 25.9919 51.9278 25.9523C51.8888 25.906 51.8694 25.8499 51.8694 25.7838V23.9208C51.6939 24.0859 51.4795 24.2081 51.2261 24.2874C50.9791 24.36 50.6965 24.3964 50.378 24.3964C49.8062 24.3964 49.3611 24.2675 49.0427 24.0099C48.7308 23.7522 48.5749 23.336 48.5749 22.7612V21.0864C48.5749 21.0204 48.5943 20.9675 48.6333 20.9279C48.6788 20.8816 48.734 20.8585 48.7991 20.8585H49.2767C49.3416 20.8585 49.3937 20.8816 49.4327 20.9279C49.478 20.9675 49.5008 21.0204 49.5008 21.0864V22.7017C49.5008 22.999 49.5853 23.2171 49.7543 23.3559C49.9297 23.4946 50.1961 23.564 50.5536 23.564C50.9499 23.564 51.2683 23.5144 51.5088 23.4153C51.7491 23.3096 51.8694 23.1246 51.8694 22.8604V21.0864C51.8694 21.0204 51.8888 20.9675 51.9278 20.9279C51.9668 20.8816 52.0221 20.8585 52.0935 20.8585H52.581C52.6459 20.8585 52.6979 20.8816 52.7369 20.9279C52.7823 20.9675 52.8051 21.0204 52.8051 21.0864V25.7838C52.8051 25.8499 52.7823 25.906 52.7369 25.9523C52.6979 25.9919 52.6459 26.0118 52.581 26.0118H52.0935ZM56.4485 26.1107C56.1236 26.1107 55.8279 26.0448 55.5615 25.9126C55.2951 25.7805 55.0806 25.6021 54.9182 25.3775C54.7557 25.1529 54.6744 24.8985 54.6744 24.6144C54.6744 24.1585 54.8565 23.7951 55.2203 23.5243C55.5843 23.2534 56.0585 23.075 56.6434 22.9891L58.0958 22.781V22.4936C58.0958 22.1765 58.0048 21.9287 57.8229 21.7504C57.6473 21.572 57.3582 21.4829 56.9553 21.4829C56.663 21.4829 56.4257 21.5423 56.2438 21.6613C56.0684 21.7801 55.9449 21.9321 55.8734 22.1171C55.8344 22.2161 55.7662 22.2657 55.6686 22.2657H55.23C55.1586 22.2657 55.1033 22.2459 55.0643 22.2062C55.0319 22.16 55.0156 22.1071 55.0156 22.0478C55.0156 21.9486 55.0514 21.8264 55.1229 21.681C55.2009 21.5356 55.3178 21.3936 55.4738 21.2549C55.6296 21.1161 55.8279 21.0005 56.0684 20.908C56.3152 20.809 56.6141 20.7594 56.9651 20.7594C57.355 20.7594 57.6831 20.8122 57.9495 20.918C58.216 21.0171 58.4238 21.1525 58.5734 21.3243C58.7294 21.496 58.8398 21.691 58.9048 21.909C58.9762 22.127 59.012 22.3483 59.012 22.5729V25.7838C59.012 25.8499 58.9893 25.906 58.9438 25.9523C58.9048 25.9919 58.8527 26.0118 58.7878 26.0118H58.3395C58.268 26.0118 58.2128 25.9919 58.1738 25.9523C58.1348 25.906 58.1152 25.8499 58.1152 25.7838V25.3576C58.0307 25.4765 57.9171 25.5955 57.774 25.7144C57.6311 25.8268 57.4524 25.9225 57.238 26.0017C57.0236 26.0745 56.7604 26.1107 56.4485 26.1107ZM56.6531 25.3675C56.9195 25.3675 57.1632 25.3114 57.3842 25.1991C57.6051 25.0801 57.7773 24.8985 57.9008 24.654C58.0307 24.4096 58.0958 24.1024 58.0958 23.7324V23.4549L56.9651 23.6234C56.5037 23.6895 56.1561 23.8018 55.9221 23.9604C55.6882 24.1123 55.5712 24.3072 55.5712 24.545C55.5712 24.73 55.6232 24.8853 55.7272 25.0108C55.8376 25.1298 55.974 25.2189 56.1365 25.2784C56.3055 25.3379 56.4777 25.3675 56.6531 25.3675ZM63.2399 26.1107C62.7785 26.1107 62.3789 26.0216 62.041 25.8433C61.7097 25.6583 61.453 25.3972 61.271 25.0604C61.089 24.7167 60.9916 24.3073 60.9785 23.8315C60.972 23.7324 60.9688 23.6003 60.9688 23.4351C60.9688 23.27 60.972 23.1377 60.9785 23.0387C60.9916 22.563 61.089 22.1567 61.271 21.8197C61.453 21.4762 61.7097 21.2153 62.041 21.0369C62.3789 20.8519 62.7785 20.7594 63.2399 20.7594C63.6168 20.7594 63.9384 20.8122 64.2048 20.918C64.4778 21.0236 64.702 21.1591 64.8774 21.3243C65.0529 21.4895 65.1828 21.6679 65.2673 21.8594C65.3583 22.051 65.407 22.2326 65.4136 22.4045C65.4201 22.4705 65.4005 22.5234 65.355 22.563C65.3096 22.6026 65.2544 22.6225 65.1893 22.6225H64.7214C64.6565 22.6225 64.6078 22.6092 64.5753 22.5829C64.5428 22.5497 64.5102 22.497 64.4778 22.4242C64.3608 22.1005 64.2016 21.8726 64.0002 21.7405C63.7988 21.6084 63.5486 21.5423 63.2496 21.5423C62.8598 21.5423 62.5414 21.6645 62.2944 21.909C62.0541 22.1534 61.924 22.5465 61.9046 23.0883C61.8981 23.3261 61.8981 23.5574 61.9046 23.782C61.924 24.3303 62.0541 24.7268 62.2944 24.9711C62.5414 25.209 62.8598 25.3279 63.2496 25.3279C63.5486 25.3279 63.7988 25.2619 64.0002 25.1297C64.2016 24.9976 64.3608 24.7696 64.4778 24.4459C64.5102 24.3732 64.5428 24.3237 64.5753 24.2972C64.6078 24.2642 64.6565 24.2477 64.7214 24.2477H65.1893C65.2544 24.2477 65.3096 24.2675 65.355 24.3073C65.4005 24.3469 65.4201 24.3996 65.4136 24.4657C65.407 24.6045 65.3778 24.7465 65.3259 24.8919C65.2738 25.0372 65.1893 25.1859 65.0724 25.3379C64.9619 25.4831 64.8222 25.6153 64.6533 25.7343C64.4843 25.8465 64.2796 25.939 64.0392 26.0118C63.8052 26.0778 63.5388 26.1107 63.2399 26.1107ZM67.575 26.0118C67.5101 26.0118 67.4549 25.9919 67.4093 25.9523C67.3704 25.906 67.3509 25.8499 67.3509 25.7838V21.0864C67.3509 21.0204 67.3704 20.9675 67.4093 20.9279C67.4549 20.8816 67.5101 20.8585 67.575 20.8585H68.0429C68.108 20.8585 68.1599 20.8816 68.1989 20.9279C68.2379 20.9675 68.2574 21.0204 68.2574 21.0864V22.9891H70.9184V21.0864C70.9184 21.0204 70.9378 20.9675 70.9768 20.9279C71.0223 20.8816 71.0776 20.8585 71.1425 20.8585H71.6007C71.6656 20.8585 71.7177 20.8816 71.7567 20.9279C71.8022 20.9675 71.8248 21.0204 71.8248 21.0864V25.7838C71.8248 25.8499 71.8022 25.906 71.7567 25.9523C71.7177 25.9919 71.6656 26.0118 71.6007 26.0118H71.1425C71.0776 26.0118 71.0223 25.9919 70.9768 25.9523C70.9378 25.906 70.9184 25.8499 70.9184 25.7838V23.782H68.2574V25.7838C68.2574 25.8499 68.2379 25.906 68.1989 25.9523C68.1599 25.9919 68.108 26.0118 68.0429 26.0118H67.575ZM76.0881 26.1107C75.4187 26.1107 74.8859 25.9028 74.4896 25.4865C74.0932 25.0636 73.8755 24.4889 73.8365 23.7621C73.83 23.6763 73.8267 23.5673 73.8267 23.4351C73.8267 23.2964 73.83 23.184 73.8365 23.0981C73.8624 22.6291 73.9697 22.2195 74.1581 21.8694C74.3465 21.5126 74.6032 21.2384 74.9282 21.0468C75.2596 20.8553 75.6462 20.7594 76.0881 20.7594C76.582 20.7594 76.9946 20.8651 77.326 21.0765C77.6639 21.288 77.9206 21.5885 78.096 21.9784C78.2715 22.3681 78.3592 22.824 78.3592 23.3459V23.5144C78.3592 23.5871 78.3364 23.6433 78.2909 23.6829C78.2519 23.7225 78.2 23.7424 78.1349 23.7424H74.7624C74.7624 23.7489 74.7624 23.7621 74.7624 23.782C74.7624 23.8018 74.7624 23.8183 74.7624 23.8315C74.7755 24.1024 74.834 24.3567 74.9379 24.5946C75.0419 24.8257 75.1913 25.0141 75.3863 25.1595C75.5812 25.3047 75.8152 25.3775 76.0881 25.3775C76.3221 25.3775 76.517 25.3411 76.673 25.2685C76.8288 25.1957 76.9556 25.1165 77.053 25.0306C77.1506 24.9381 77.2155 24.8687 77.248 24.8225C77.3064 24.7366 77.3519 24.6871 77.3844 24.6739C77.417 24.654 77.4689 24.6441 77.5404 24.6441H78.0083C78.0732 24.6441 78.1252 24.664 78.1642 24.7036C78.2097 24.7366 78.2292 24.7861 78.2228 24.8522C78.2163 24.9514 78.1642 25.0735 78.0668 25.2189C77.9693 25.3576 77.8295 25.4964 77.6476 25.6351C77.4657 25.7739 77.2448 25.8895 76.9848 25.982C76.7249 26.0679 76.426 26.1107 76.0881 26.1107ZM74.7624 23.0585H77.4332V23.0288C77.4332 22.7315 77.378 22.4672 77.2674 22.236C77.1635 22.0047 77.0109 21.8231 76.8094 21.691C76.6079 21.5523 76.3674 21.4829 76.0881 21.4829C75.8086 21.4829 75.5682 21.5523 75.3668 21.691C75.1719 21.8231 75.0224 22.0047 74.9184 22.236C74.8144 22.4672 74.7624 22.7315 74.7624 23.0288V23.0585ZM85.5204 26.1107C85.059 26.1107 84.6594 26.0216 84.3215 25.8433C83.99 25.6583 83.7333 25.3972 83.5514 25.0604C83.3695 24.7167 83.2719 24.3073 83.259 23.8315C83.2525 23.7324 83.2493 23.6003 83.2493 23.4351C83.2493 23.27 83.2525 23.1377 83.259 23.0387C83.2719 22.563 83.3695 22.1567 83.5514 21.8197C83.7333 21.4762 83.99 21.2153 84.3215 21.0369C84.6594 20.8519 85.059 20.7594 85.5204 20.7594C85.8972 20.7594 86.2189 20.8122 86.4853 20.918C86.7582 21.0236 86.9823 21.1591 87.1579 21.3243C87.3333 21.4895 87.4633 21.6679 87.5478 21.8594C87.6387 22.051 87.6874 22.2326 87.6939 22.4045C87.7004 22.4705 87.681 22.5234 87.6355 22.563C87.59 22.6026 87.5347 22.6225 87.4698 22.6225H87.0019C86.937 22.6225 86.8881 22.6092 86.8557 22.5829C86.8232 22.5497 86.7907 22.497 86.7582 22.4242C86.6413 22.1005 86.4821 21.8726 86.2806 21.7405C86.0791 21.6084 85.829 21.5423 85.5301 21.5423C85.1402 21.5423 84.8217 21.6645 84.5749 21.909C84.3344 22.1534 84.2045 22.5465 84.185 23.0883C84.1784 23.3261 84.1784 23.5574 84.185 23.782C84.2045 24.3303 84.3344 24.7268 84.5749 24.9711C84.8217 25.209 85.1402 25.3279 85.5301 25.3279C85.829 25.3279 86.0791 25.2619 86.2806 25.1297C86.4821 24.9976 86.6413 24.7696 86.7582 24.4459C86.7907 24.3732 86.8232 24.3237 86.8557 24.2972C86.8881 24.2642 86.937 24.2477 87.0019 24.2477H87.4698C87.5347 24.2477 87.59 24.2675 87.6355 24.3073C87.681 24.3469 87.7004 24.3996 87.6939 24.4657C87.6874 24.6045 87.6582 24.7465 87.6062 24.8919C87.5543 25.0372 87.4698 25.1859 87.3528 25.3379C87.2424 25.4831 87.1026 25.6153 86.9336 25.7343C86.7648 25.8465 86.56 25.939 86.3196 26.0118C86.0857 26.0778 85.8193 26.1107 85.5204 26.1107ZM89.8555 26.0118C89.7906 26.0118 89.7353 25.9919 89.6898 25.9523C89.6508 25.906 89.6313 25.8499 89.6313 25.7838V21.0864C89.6313 21.0204 89.6508 20.9675 89.6898 20.9279C89.7353 20.8816 89.7906 20.8585 89.8555 20.8585H90.3137C90.3786 20.8585 90.4305 20.8816 90.4695 20.9279C90.515 20.9675 90.5378 21.0204 90.5378 21.0864V22.9891H91.4247L92.7407 21.0071C92.7732 20.9609 92.8089 20.9246 92.8478 20.8981C92.8868 20.8718 92.9389 20.8585 93.0038 20.8585H93.5107C93.5691 20.8585 93.6179 20.8718 93.6569 20.8981C93.6959 20.9246 93.7154 20.9642 93.7154 21.0171C93.7154 21.0302 93.7088 21.0501 93.6959 21.0765C93.6894 21.0964 93.6797 21.1161 93.6667 21.136L92.2045 23.3261L93.8616 25.7242C93.8941 25.764 93.9103 25.8069 93.9103 25.8531C93.9103 25.906 93.8908 25.9456 93.8518 25.972C93.8193 25.9985 93.7739 26.0118 93.7154 26.0118H93.1208C93.0624 26.0118 93.0135 25.9985 92.9745 25.972C92.9355 25.9456 92.8999 25.9092 92.8674 25.863L91.4346 23.7919H90.5378V25.7838C90.5378 25.8499 90.515 25.906 90.4695 25.9523C90.4305 25.9919 90.3786 26.0118 90.3137 26.0118H89.8555ZM95.3931 26.0118C95.328 26.0118 95.2728 25.9886 95.2274 25.9424C95.1819 25.8961 95.1591 25.8399 95.1591 25.7739V25.4072C95.1591 25.2685 95.2274 25.1958 95.3638 25.1891C95.5653 25.1826 95.7342 25.0868 95.8707 24.9018C96.0071 24.7103 96.111 24.4096 96.1826 24C96.2541 23.5838 96.2898 23.0354 96.2898 22.3549V21.0864C96.2898 21.0204 96.3093 20.9675 96.3483 20.9279C96.3938 20.8816 96.449 20.8585 96.514 20.8585H99.6136C99.6785 20.8585 99.7306 20.8816 99.7695 20.9279C99.8151 20.9675 99.8378 21.0204 99.8378 21.0864V25.7838C99.8378 25.8499 99.8151 25.906 99.7695 25.9523C99.7306 25.9919 99.6785 26.0118 99.6136 26.0118H99.1457C99.0807 26.0118 99.0287 25.9919 98.9897 25.9523C98.9507 25.906 98.9313 25.8499 98.9313 25.7838V21.6512H97.1768V22.4639C97.1768 23.0981 97.141 23.6433 97.0696 24.0991C96.9981 24.5484 96.8877 24.915 96.7382 25.1991C96.5952 25.4765 96.41 25.6814 96.1826 25.8135C95.9616 25.9456 95.6985 26.0118 95.3931 26.0118ZM102.295 26.0118C102.23 26.0118 102.175 25.9919 102.129 25.9523C102.09 25.906 102.071 25.8499 102.071 25.7838V21.0864C102.071 21.0204 102.09 20.9675 102.129 20.9279C102.175 20.8816 102.23 20.8585 102.295 20.8585H102.763C102.828 20.8585 102.88 20.8816 102.919 20.9279C102.958 20.9675 102.977 21.0204 102.977 21.0864V25.7838C102.977 25.8499 102.958 25.906 102.919 25.9523C102.88 25.9919 102.828 26.0118 102.763 26.0118H102.295ZM102.217 19.8972C102.152 19.8972 102.097 19.8774 102.051 19.8378C102.012 19.7915 101.993 19.7354 101.993 19.6694V19.1341C101.993 19.0681 102.012 19.0153 102.051 18.9756C102.097 18.9294 102.152 18.9062 102.217 18.9062H102.831C102.896 18.9062 102.948 18.9294 102.987 18.9756C103.032 19.0153 103.055 19.0681 103.055 19.1341V19.6694C103.055 19.7354 103.032 19.7915 102.987 19.8378C102.948 19.8774 102.896 19.8972 102.831 19.8972H102.217ZM105.435 26.0118C105.37 26.0118 105.315 25.9919 105.269 25.9523C105.23 25.906 105.211 25.8499 105.211 25.7838V21.0864C105.211 21.0204 105.23 20.9675 105.269 20.9279C105.315 20.8816 105.37 20.8585 105.435 20.8585H105.903C105.968 20.8585 106.02 20.8816 106.059 20.9279C106.098 20.9675 106.117 21.0204 106.117 21.0864V22.9891H108.778V21.0864C108.778 21.0204 108.798 20.9675 108.837 20.9279C108.882 20.8816 108.938 20.8585 109.003 20.8585H109.461C109.526 20.8585 109.578 20.8816 109.617 20.9279C109.662 20.9675 109.685 21.0204 109.685 21.0864V25.7838C109.685 25.8499 109.662 25.906 109.617 25.9523C109.578 25.9919 109.526 26.0118 109.461 26.0118H109.003C108.938 26.0118 108.882 25.9919 108.837 25.9523C108.798 25.906 108.778 25.8499 108.778 25.7838V23.782H106.117V25.7838C106.117 25.8499 106.098 25.906 106.059 25.9523C106.02 25.9919 105.968 26.0118 105.903 26.0118H105.435ZM112.155 26.0118C112.09 26.0118 112.034 25.9919 111.989 25.9523C111.95 25.906 111.931 25.8499 111.931 25.7838V21.0864C111.931 21.0204 111.95 20.9675 111.989 20.9279C112.034 20.8816 112.09 20.8585 112.155 20.8585H112.623C112.687 20.8585 112.74 20.8816 112.779 20.9279C112.818 20.9675 112.837 21.0204 112.837 21.0864V22.9891H115.498V21.0864C115.498 21.0204 115.518 20.9675 115.556 20.9279C115.601 20.8816 115.657 20.8585 115.722 20.8585H116.181C116.245 20.8585 116.298 20.8816 116.336 20.9279C116.381 20.9675 116.405 21.0204 116.405 21.0864V25.7838C116.405 25.8499 116.381 25.906 116.336 25.9523C116.298 25.9919 116.245 26.0118 116.181 26.0118H115.722C115.657 26.0118 115.601 25.9919 115.556 25.9523C115.518 25.906 115.498 25.8499 115.498 25.7838V23.782H112.837V25.7838C112.837 25.8499 112.818 25.906 112.779 25.9523C112.74 25.9919 112.687 26.0118 112.623 26.0118H112.155ZM121.808 26.0118C121.737 26.0118 121.681 25.9919 121.642 25.9523C121.604 25.906 121.584 25.8499 121.584 25.7838V24.1685H120.464V24.1189C119.852 24.1189 119.397 23.967 119.098 23.663C118.806 23.3525 118.66 22.9594 118.66 22.4837C118.66 21.9287 118.819 21.5191 119.138 21.2549C119.462 20.9906 119.949 20.8585 120.599 20.8585H122.277C122.341 20.8585 122.393 20.8816 122.432 20.9279C122.477 20.9675 122.5 21.0204 122.5 21.0864V25.7838C122.5 25.8499 122.477 25.906 122.432 25.9523C122.393 25.9919 122.341 26.0118 122.277 26.0118H121.808ZM118.718 26.0118C118.66 26.0118 118.611 25.9919 118.572 25.9523C118.532 25.9126 118.514 25.8664 118.514 25.8135C118.514 25.7871 118.516 25.7606 118.524 25.7343C118.536 25.7011 118.556 25.6681 118.582 25.6351L119.742 23.891L120.678 23.9604L119.439 25.863C119.413 25.8961 119.377 25.9291 119.332 25.9621C119.286 25.9951 119.238 26.0118 119.186 26.0118H118.718ZM120.492 23.4253H121.594V21.6018H120.571C120.206 21.6018 119.937 21.6679 119.761 21.8C119.593 21.9255 119.508 22.1534 119.508 22.4837C119.508 22.7546 119.585 22.9793 119.742 23.1576C119.904 23.336 120.155 23.4253 120.492 23.4253Z" fill="white" stroke="white" stroke-width="2" mask="url(#path-5-inside-1_2005_799)"/>
</g>
<defs>
<clipPath id="clip0_2005_799">
<rect width="123" height="30" fill="white"/>
</clipPath>
</defs>
</svg>
